<svg xmlns="http://www.w3.org/2000/svg" width="1800" height="1210" viewBox="0 0 1800 1210" role="img" aria-labelledby="title desc" xml:lang="zh-CN">
<title id="title">Protocol Alpha Finder · 系统架构</title><desc id="desc">地址与候选均为方法示意 · 高亮钱包展开为三个候选机制。</desc><defs>
<marker id="a0" viewBox="0 0 10 10" refX="9" refY="5" markerWidth="10" markerHeight="10" markerUnits="userSpaceOnUse" orient="auto"><path d="M 0 0 L 10 5 L 0 10 L 2.5 5 Z" fill="#2563b8"/></marker>
<marker id="a1" viewBox="0 0 10 10" refX="9" refY="5" markerWidth="10" markerHeight="10" markerUnits="userSpaceOnUse" orient="auto"><path d="M 0 0 L 10 5 L 0 10 L 2.5 5 Z" fill="#7953ad"/></marker>
<marker id="a2" viewBox="0 0 10 10" refX="9" refY="5" markerWidth="10" markerHeight="10" markerUnits="userSpaceOnUse" orient="auto"><path d="M 0 0 L 10 5 L 0 10 L 2.5 5 Z" fill="#a8661e"/></marker>
<marker id="a3" viewBox="0 0 10 10" refX="9" refY="5" markerWidth="10" markerHeight="10" markerUnits="userSpaceOnUse" orient="auto"><path d="M 0 0 L 10 5 L 0 10 L 2.5 5 Z" fill="#20775b"/></marker>
</defs><style>
text { font-family: Arial, 'PingFang SC', 'Microsoft YaHei', sans-serif; fill:#24384d; }
.title { font-size:38px; font-weight:700; letter-spacing:-.4px; }
.heading { font-size:23px; font-weight:650; }
.node { font-size:21px; font-weight:600; }
.body { font-size:18px; fill:#526579; }
.small { font-size:16px; fill:#61758a; }
.code { font-family:'SFMono-Regular',Consolas,monospace; font-size:16px; }
.label { font-size:14px; font-weight:650; letter-spacing:1px; fill:#61758a; }
</style>
<rect x="0" y="0" width="1800" height="1210" rx="0" fill="#ffffff" stroke="none" stroke-width="1.3"/>
<style>
.skill-title { font-size:18px; font-weight:700; fill:#24384d; }
.skill-description { font-size:16px; font-weight:700; fill:#526579; }
.coordinator-title { font-size:23px; font-weight:700; }
.coordinator-description { font-size:20px; font-weight:700; }
</style>
<text x="40" y="55" class="title" text-anchor="start">Protocol Alpha Finder · 系统架构</text>
<path data-kind="legend-evidence" d="M 1200 90 C 1225.0 90 1225.0 90 1250 90" stroke="#2563b8" stroke-width="3" fill="none" stroke-linecap="round" marker-end="url(#a0)"/>
<text x="1262" y="96" class="small" text-anchor="start">证据流转</text>
<path data-kind="legend-control" d="M 1440 90 C 1465.0 90 1465.0 90 1490 90" stroke="#20775b" stroke-width="2" fill="none" stroke-linecap="round" marker-end="url(#a3)" stroke-dasharray="5 6"/>
<text x="1502" y="96" class="small" text-anchor="start">编排／复查</text>
<rect x="40" y="125" width="1720" height="674" rx="8" fill="#fafcfb" stroke="#b8d2c6" stroke-width="1.3"/>
<text x="65" y="166" class="heading" text-anchor="start">研究工作流</text>
<rect x="675" y="182" width="450" height="64" rx="8" fill="#eef8f4" stroke="#c9e5d9" stroke-width="1.3"/>
<text x="900" y="207" class="coordinator-title" text-anchor="middle" style="fill:#20775b">Skill 4</text>
<text x="900" y="232" class="coordinator-description" text-anchor="middle" style="fill:#20775b">协调三个 Skill</text>
<path data-kind="coordination-bus" d="M 900 246 V 265 M 425 265 H 1330" stroke="#20775b" stroke-width="1.8" stroke-dasharray="6 6" fill="none"/>
<path data-kind="skill-coordination" d="M 425 265 C 425 310.0 425 310.0 425 355" stroke="#20775b" stroke-width="2" fill="none" stroke-linecap="round" marker-end="url(#a3)" stroke-dasharray="5 6"/>
<path data-kind="skill-coordination" d="M 875 265 C 875 310.0 875 310.0 875 355" stroke="#20775b" stroke-width="2" fill="none" stroke-linecap="round" marker-end="url(#a3)" stroke-dasharray="5 6"/>
<path data-kind="skill-coordination" d="M 1330 265 C 1330 315.0 1330 315.0 1330 365" stroke="#20775b" stroke-width="2" fill="none" stroke-linecap="round" marker-end="url(#a3)" stroke-dasharray="5 6"/>
<rect x="65" y="300" width="300" height="459" rx="8" fill="#ffffff" stroke="#c9d6e3" stroke-width="1.3"/>
<text x="215.0" y="336" class="heading" text-anchor="middle">1 · Alpha Seed</text>
<rect x="485" y="300" width="320" height="459" rx="8" fill="#ffffff" stroke="#c9d6e3" stroke-width="1.3"/>
<text x="645.0" y="336" class="heading" text-anchor="middle">2 · 策略钱包</text>
<rect x="945" y="300" width="330" height="459" rx="8" fill="#ffffff" stroke="#c9d6e3" stroke-width="1.3"/>
<text x="1110.0" y="336" class="heading" text-anchor="middle">3 · Alpha 候选</text>
<rect x="1385" y="300" width="350" height="459" rx="8" fill="#ffffff" stroke="#c9d6e3" stroke-width="1.3"/>
<text x="1560.0" y="336" class="heading" text-anchor="middle">4 · 验证</text>
<path data-kind="seed-wallet" d="M 345 410 C 424.0 410 424.0 390 503 390" stroke="#2563b8" stroke-width="3" fill="none" stroke-linecap="round" marker-end="url(#a0)"/>
<path data-kind="seed-wallet" d="M 345 410 C 424.0 410 424.0 443 503 443" stroke="#2563b8" stroke-width="3" fill="none" stroke-linecap="round" marker-end="url(#a0)"/>
<path data-kind="seed-wallet" d="M 345 547 C 424.0 547 424.0 527 503 527" stroke="#2563b8" stroke-width="3" fill="none" stroke-linecap="round" marker-end="url(#a0)"/>
<path data-kind="seed-wallet" d="M 345 547 C 424.0 547 424.0 580 503 580" stroke="#2563b8" stroke-width="3" fill="none" stroke-linecap="round" marker-end="url(#a0)"/>
<path data-kind="seed-wallet" d="M 345 684 C 424.0 684 424.0 664 503 664" stroke="#2563b8" stroke-width="3" fill="none" stroke-linecap="round" marker-end="url(#a0)"/>
<path data-kind="seed-wallet" d="M 345 684 C 424.0 684 424.0 717 503 717" stroke="#2563b8" stroke-width="3" fill="none" stroke-linecap="round" marker-end="url(#a0)"/>
<path data-kind="wallet-candidate" d="M 785 390 C 874.0 390 874.0 410 963 410" stroke="#20775b" stroke-width="3" fill="none" stroke-linecap="round" marker-end="url(#a3)"/>
<path data-kind="wallet-candidate" d="M 785 390 C 874.0 390 874.0 547 963 547" stroke="#20775b" stroke-width="3" fill="none" stroke-linecap="round" marker-end="url(#a3)"/>
<path data-kind="wallet-candidate" d="M 785 390 C 874.0 390 874.0 684 963 684" stroke="#20775b" stroke-width="3" fill="none" stroke-linecap="round" marker-end="url(#a3)"/>
<path data-kind="candidate-validation" d="M 1255 410 C 1329.0 410 1329.0 410 1403 410" stroke="#a8661e" stroke-width="3" fill="none" stroke-linecap="round" marker-end="url(#a2)"/>
<rect x="85" y="361" width="260" height="98" rx="6" fill="#ffffff" stroke="#c9d6e3" stroke-width="1.3"/>
<text x="215" y="393" class="node" text-anchor="middle">Energy Rental</text>
<text x="215" y="421" class="small" text-anchor="middle">清算保证金不足的租赁订单，</text>
<text x="215" y="444" class="small" text-anchor="middle">回收资源并获得奖励。</text>
<rect x="965" y="361" width="290" height="98" rx="6" fill="#eef8f4" stroke="#c9e5d9" stroke-width="1.3"/>
<text x="1110" y="393" class="node" text-anchor="middle" style="fill:#20775b">租赁组合操作</text>
<text x="1110" y="421" class="small" text-anchor="middle">合并调用可能降低</text>
<text x="1110" y="444" class="small" text-anchor="middle">整体执行成本。</text>
<rect x="85" y="498" width="260" height="98" rx="6" fill="#ffffff" stroke="#c9d6e3" stroke-width="1.3"/>
<text x="215" y="530" class="node" text-anchor="middle">JustLend</text>
<text x="215" y="558" class="small" text-anchor="middle">偿还抵押不足头寸的债务，</text>
<text x="215" y="581" class="small" text-anchor="middle">获得被清算的抵押品。</text>
<rect x="965" y="498" width="290" height="98" rx="6" fill="#eef8f4" stroke="#c9e5d9" stroke-width="1.3"/>
<text x="1110" y="530" class="node" text-anchor="middle" style="fill:#20775b">抵押品回收</text>
<text x="1110" y="558" class="small" text-anchor="middle">赎回并兑换可能更快</text>
<text x="1110" y="581" class="small" text-anchor="middle">释放占用资金。</text>
<rect x="85" y="635" width="260" height="98" rx="6" fill="#ffffff" stroke="#c9d6e3" stroke-width="1.3"/>
<text x="215" y="667" class="node" text-anchor="middle">USDD</text>
<text x="215" y="695" class="small" text-anchor="middle">触发清算、重启拍卖，</text>
<text x="215" y="718" class="small" text-anchor="middle">或购买拍卖中的抵押品。</text>
<rect x="965" y="635" width="290" height="98" rx="6" fill="#eef8f4" stroke="#c9e5d9" stroke-width="1.3"/>
<text x="1110" y="667" class="node" text-anchor="middle" style="fill:#20775b">拍卖时机</text>
<text x="1110" y="695" class="small" text-anchor="middle">短暂折价可能带来机会，</text>
<text x="1110" y="718" class="small" text-anchor="middle">需要结合执行成本验证。</text>
<rect x="505" y="369" width="280" height="42" rx="6" fill="#20775b" stroke="#20775b" stroke-width="1.3"/>
<text x="645" y="397" class="node" text-anchor="middle" style="fill:#ffffff">T8mQ…4kN2</text>
<rect x="505" y="422" width="280" height="42" rx="6" fill="#f8fafc" stroke="#d3dce6" stroke-width="1.3"/>
<text x="645" y="450" class="node" text-anchor="middle" style="fill:#61758a">TB7p…9wR4</text>
<rect x="505" y="506" width="280" height="42" rx="6" fill="#f8fafc" stroke="#d3dce6" stroke-width="1.3"/>
<text x="645" y="534" class="node" text-anchor="middle" style="fill:#61758a">TK3v…7dA6</text>
<rect x="505" y="559" width="280" height="42" rx="6" fill="#f8fafc" stroke="#d3dce6" stroke-width="1.3"/>
<text x="645" y="587" class="node" text-anchor="middle" style="fill:#61758a">TP5n…2sF8</text>
<rect x="505" y="643" width="280" height="42" rx="6" fill="#f8fafc" stroke="#d3dce6" stroke-width="1.3"/>
<text x="645" y="671" class="node" text-anchor="middle" style="fill:#61758a">TU6c…8hM3</text>
<rect x="505" y="696" width="280" height="42" rx="6" fill="#f8fafc" stroke="#d3dce6" stroke-width="1.3"/>
<text x="645" y="724" class="node" text-anchor="middle" style="fill:#61758a">TX9r…5bK7</text>
<rect x="373" y="358" width="104" height="84" rx="7" fill="#f5f8fb" stroke="#9eb0c1" stroke-width="1.3"/>
<text x="425" y="376" class="skill-title" text-anchor="middle" style="fill:#24384d">Skill 1</text>
<text x="425" y="405" class="skill-description" text-anchor="middle">寻找策略</text>
<text x="425" y="423" class="skill-description" text-anchor="middle">钱包</text>
<rect x="823" y="358" width="104" height="84" rx="7" fill="#f5f8fb" stroke="#9eb0c1" stroke-width="1.3"/>
<text x="875" y="376" class="skill-title" text-anchor="middle" style="fill:#24384d">Skill 2</text>
<text x="875" y="405" class="skill-description" text-anchor="middle">发掘 Alpha</text>
<text x="875" y="423" class="skill-description" text-anchor="middle">候选</text>
<rect x="1278" y="368" width="104" height="84" rx="7" fill="#f5f8fb" stroke="#9eb0c1" stroke-width="1.3"/>
<text x="1330" y="386" class="skill-title" text-anchor="middle" style="fill:#24384d">Skill 3</text>
<text x="1330" y="415" class="skill-description" text-anchor="middle">验证 Alpha</text>
<text x="1330" y="433" class="skill-description" text-anchor="middle">候选</text>
<rect x="1405" y="361" width="310" height="124" rx="6" fill="#ffffff" stroke="#c9d6e3" stroke-width="1.3"/>
<text x="1560" y="394" class="body" text-anchor="middle">执行证据</text>
<text x="1560" y="423" class="body" text-anchor="middle">奖励扣除成本</text>
<text x="1560" y="452" class="body" text-anchor="middle">协议当前条件</text>
<path data-kind="validation-report" d="M 1560 489 C 1560 506.0 1560 506.0 1560 523" stroke="#a8661e" stroke-width="3" fill="none" stroke-linecap="round" marker-end="url(#a2)"/>
<text x="1560" y="554" class="node" text-anchor="middle">Alpha 报告</text>
<text x="1560" y="584" class="small" text-anchor="middle">可执行 · 持续观察</text>
<text x="1560" y="610" class="small" text-anchor="middle">已排除 · 证据不足</text>
<path data-kind="report-new-alpha" d="M 1560 624 C 1560 641.5 1560 641.5 1560 659" stroke="#20775b" stroke-width="3" fill="none" stroke-linecap="round" marker-end="url(#a3)"/>
<rect x="1405" y="666" width="310" height="59" rx="6" fill="#eef8f4" stroke="#c9e5d9" stroke-width="1.3"/>
<text x="1560" y="702" class="body" text-anchor="middle" style="fill:#20775b">验证支持后形成新的 Alpha</text>
<path data-kind="history-workflow" d="M 435 845 C 435 824.5 435 824.5 435 804" stroke="#2563b8" stroke-width="3" fill="none" stroke-linecap="round" marker-end="url(#a0)"/>
<path data-kind="observation-review" d="M 1365 845 V 820 H 875 V 804" fill="none" stroke="#20775b" stroke-width="2" stroke-dasharray="6 6" marker-end="url(#a3)"/>
<rect x="65" y="845" width="740" height="120" rx="8" fill="#f8fafc" stroke="#c9d6e3" stroke-width="1.3"/>
<text x="89" y="879" class="heading" text-anchor="start">历史证据</text>
<text x="89" y="913" class="body" text-anchor="start">合约调用 · 交易回执 · 资产流动 · 协议状态</text>
<text x="89" y="942" class="small" text-anchor="start">识别真实执行者，还原钱包使用的策略。</text>
<rect x="995" y="845" width="740" height="120" rx="8" fill="#f8fafc" stroke="#c9d6e3" stroke-width="1.3"/>
<text x="1019" y="879" class="heading" text-anchor="start">复查钱包的新活动</text>
<text x="1019" y="913" class="body" text-anchor="start">新增调用 · 行为变化 · 再次出现的执行条件</text>
<text x="1019" y="942" class="small" text-anchor="start">重复采集与复查；当前由手动启动检查。</text>
<path data-kind="history-observation" d="M 815 905 C 900.0 905 900.0 905 985 905" stroke="#2563b8" stroke-width="3" fill="none" stroke-linecap="round" marker-end="url(#a0)"/>
<text x="900" y="891" class="small" text-anchor="middle">对比</text>
<rect x="40" y="998" width="1720" height="182" rx="8" fill="#f8fafc" stroke="#c9d6e3" stroke-width="1.3"/>
<text x="65" y="1035" class="heading" text-anchor="start">技术架构</text>
<rect x="65" y="1056" width="335" height="99" rx="8" fill="#ffffff" stroke="#c9d6e3" stroke-width="1.3"/>
<text x="232.5" y="1092" class="node" text-anchor="middle">TRON 链上数据</text>
<text x="232.5" y="1125" class="small" text-anchor="middle">合约调用 · 回执 · 协议状态</text>
<rect x="510" y="1056" width="335" height="99" rx="8" fill="#ffffff" stroke="#c9d6e3" stroke-width="1.3"/>
<text x="677.5" y="1092" class="node" text-anchor="middle">采集与研究</text>
<text x="677.5" y="1125" class="small" text-anchor="middle">Python 采集器 · Agent Skills</text>
<rect x="955" y="1056" width="335" height="99" rx="8" fill="#ffffff" stroke="#c9d6e3" stroke-width="1.3"/>
<text x="1122.5" y="1092" class="node" text-anchor="middle">研究归档</text>
<text x="1122.5" y="1125" class="small" text-anchor="middle">SQLite 证据 · JSON 研究结论</text>
<rect x="1400" y="1056" width="335" height="99" rx="8" fill="#ffffff" stroke="#c9d6e3" stroke-width="1.3"/>
<text x="1567.5" y="1092" class="node" text-anchor="middle">研究工作区</text>
<text x="1567.5" y="1125" class="small" text-anchor="middle">Python 适配器 · React 界面</text>
<path data-kind="technical-flow" d="M 406 1114 C 454.5 1114 454.5 1114 503 1114" stroke="#2563b8" stroke-width="3" fill="none" stroke-linecap="round" marker-end="url(#a0)"/>
<text x="454.5" y="1099" class="small" text-anchor="middle">读取</text>
<path data-kind="technical-flow" d="M 851 1114 C 899.5 1114 899.5 1114 948 1114" stroke="#2563b8" stroke-width="3" fill="none" stroke-linecap="round" marker-end="url(#a0)"/>
<text x="899.5" y="1099" class="small" text-anchor="middle">保存</text>
<path data-kind="technical-flow" d="M 1296 1114 C 1344.5 1114 1344.5 1114 1393 1114" stroke="#2563b8" stroke-width="3" fill="none" stroke-linecap="round" marker-end="url(#a0)"/>
<text x="1344.5" y="1099" class="small" text-anchor="middle">读取 JSON</text>
</svg>
