<svg xmlns="http://www.w3.org/2000/svg" width="1800" height="1150" viewBox="0 0 1800 1150" role="img" aria-labelledby="title desc" xml:lang="en">
<title id="title">From Seed Alpha to New Alpha</title><desc id="desc">Method illustration · Two wallets per seed · USDD wallets and auction hypothesis are illustrative, not recorded findings.</desc><defs>
<marker id="a0" viewBox="0 0 10 10" refX="9" refY="5" markerWidth="10" markerHeight="10" markerUnits="userSpaceOnUse" orient="auto"><path d="M 0 0 L 10 5 L 0 10 L 2.5 5 Z" fill="#2563b8"/></marker>
<marker id="a1" viewBox="0 0 10 10" refX="9" refY="5" markerWidth="10" markerHeight="10" markerUnits="userSpaceOnUse" orient="auto"><path d="M 0 0 L 10 5 L 0 10 L 2.5 5 Z" fill="#7953ad"/></marker>
<marker id="a2" viewBox="0 0 10 10" refX="9" refY="5" markerWidth="10" markerHeight="10" markerUnits="userSpaceOnUse" orient="auto"><path d="M 0 0 L 10 5 L 0 10 L 2.5 5 Z" fill="#a8661e"/></marker>
<marker id="a3" viewBox="0 0 10 10" refX="9" refY="5" markerWidth="10" markerHeight="10" markerUnits="userSpaceOnUse" orient="auto"><path d="M 0 0 L 10 5 L 0 10 L 2.5 5 Z" fill="#20775b"/></marker>
</defs><style>
text { font-family: Arial, 'PingFang SC', 'Microsoft YaHei', sans-serif; fill:#24384d; }
.title { font-size:38px; font-weight:700; letter-spacing:-.4px; }
.heading { font-size:23px; font-weight:650; }
.node { font-size:21px; font-weight:600; }
.body { font-size:18px; fill:#526579; }
.small { font-size:16px; fill:#61758a; }
.code { font-family:'SFMono-Regular',Consolas,monospace; font-size:16px; }
.label { font-size:14px; font-weight:650; letter-spacing:1px; fill:#61758a; }
</style>
<rect x="0" y="0" width="1800" height="1150" rx="0" fill="#ffffff" stroke="none" stroke-width="1.3"/>
<text x="32" y="53" class="title" text-anchor="start">Protocol Alpha Finder · Research Method</text>
<path data-kind="legend-flow" d="M 1150 87 C 1175.0 87 1175.0 87 1200 87" stroke="#2563b8" stroke-width="3" fill="none" stroke-linecap="round" marker-end="url(#a0)"/>
<text x="1210" y="93" class="small" text-anchor="start">Evidence &amp; results</text>
<path data-kind="legend-coordination" d="M 1430 87 C 1455.0 87 1455.0 87 1480 87" stroke="#20775b" stroke-width="2" fill="none" stroke-linecap="round" marker-end="url(#a3)" stroke-dasharray="5 6"/>
<text x="1490" y="93" class="small" text-anchor="start">Skill coordination</text>
<rect x="32" y="130" width="326" height="530" rx="8" fill="#ffffff" stroke="#c9d6e3" stroke-width="1.3"/>
<text x="195" y="169" class="heading" text-anchor="middle">1 · Alpha Seeds</text>
<text x="195" y="200" class="small" text-anchor="middle">Known protocol mechanisms</text>
<rect x="432" y="130" width="1336" height="530" rx="8" fill="#fafcfb" stroke="#b8d2c6" stroke-width="1.3"/>
<text x="456" y="169" class="heading" text-anchor="start">Research Workflow</text>
<rect x="462" y="194" width="326" height="438" rx="8" fill="#ffffff" stroke="#c9d6e3" stroke-width="1.3"/>
<text x="625.0" y="228" class="heading" text-anchor="middle">2 · Strategy Wallets</text>
<rect x="910" y="194" width="350" height="438" rx="8" fill="#ffffff" stroke="#c9d6e3" stroke-width="1.3"/>
<text x="1085.0" y="228" class="heading" text-anchor="middle">3 · Alpha Candidates</text>
<rect x="1390" y="194" width="350" height="438" rx="8" fill="#ffffff" stroke="#c9d6e3" stroke-width="1.3"/>
<text x="1565.0" y="228" class="heading" text-anchor="middle">4 · Validation</text>
<path data-kind="seed-wallet" d="M 336 303 C 408.0 303 408.0 277 480 277" stroke="#2563b8" stroke-width="3" fill="none" stroke-linecap="round" marker-end="url(#a0)"/>
<path data-kind="seed-wallet" d="M 336 303 C 408.0 303 408.0 329 480 329" stroke="#2563b8" stroke-width="3" fill="none" stroke-linecap="round" marker-end="url(#a0)"/>
<path data-kind="seed-wallet" d="M 336 436 C 408.0 436 408.0 410 480 410" stroke="#2563b8" stroke-width="3" fill="none" stroke-linecap="round" marker-end="url(#a0)"/>
<path data-kind="seed-wallet" d="M 336 436 C 408.0 436 408.0 462 480 462" stroke="#2563b8" stroke-width="3" fill="none" stroke-linecap="round" marker-end="url(#a0)"/>
<path data-kind="seed-wallet" d="M 336 569 C 408.0 569 408.0 543 480 543" stroke="#2563b8" stroke-width="3" fill="none" stroke-linecap="round" marker-end="url(#a0)"/>
<path data-kind="seed-wallet" d="M 336 569 C 408.0 569 408.0 595 480 595" stroke="#2563b8" stroke-width="3" fill="none" stroke-linecap="round" marker-end="url(#a0)"/>
<path data-kind="wallet-candidate" d="M 770 277 C 849.0 277 849.0 303 928 303" stroke="#7953ad" stroke-width="3" fill="none" stroke-linecap="round" marker-end="url(#a1)"/>
<path data-kind="wallet-candidate" d="M 770 329 C 849.0 329 849.0 303 928 303" stroke="#7953ad" stroke-width="3" fill="none" stroke-linecap="round" marker-end="url(#a1)"/>
<path data-kind="wallet-candidate" d="M 770 410 C 849.0 410 849.0 436 928 436" stroke="#7953ad" stroke-width="3" fill="none" stroke-linecap="round" marker-end="url(#a1)"/>
<path data-kind="wallet-candidate" d="M 770 462 C 849.0 462 849.0 436 928 436" stroke="#7953ad" stroke-width="3" fill="none" stroke-linecap="round" marker-end="url(#a1)"/>
<path data-kind="wallet-candidate" d="M 770 543 C 849.0 543 849.0 569 928 569" stroke="#7953ad" stroke-width="3" fill="none" stroke-linecap="round" marker-end="url(#a1)"/>
<path data-kind="wallet-candidate" d="M 770 595 C 849.0 595 849.0 569 928 569" stroke="#7953ad" stroke-width="3" fill="none" stroke-linecap="round" marker-end="url(#a1)"/>
<path data-kind="candidate-validation" d="M 1242 303 C 1324.0 303 1324.0 322 1406 322" stroke="#a8661e" stroke-width="3" fill="none" stroke-linecap="round" marker-end="url(#a2)"/>
<path data-kind="candidate-validation" d="M 1242 436 C 1324.0 436 1324.0 322 1406 322" stroke="#a8661e" stroke-width="3" fill="none" stroke-linecap="round" marker-end="url(#a2)"/>
<path data-kind="candidate-validation" d="M 1242 569 C 1324.0 569 1324.0 322 1406 322" stroke="#a8661e" stroke-width="3" fill="none" stroke-linecap="round" marker-end="url(#a2)"/>
<rect x="54" y="254" width="282" height="98" rx="6" fill="#ffffff" stroke="#c9d6e3" stroke-width="1.3"/>
<text x="195" y="286" class="node" text-anchor="middle">Energy Rental</text>
<text x="195" y="314" class="small" text-anchor="middle">Clear depleted rental orders,</text>
<text x="195" y="337" class="small" text-anchor="middle">recover resources and rewards.</text>
<rect x="928" y="254" width="314" height="98" rx="6" fill="#ffffff" stroke="#d8cfe5" stroke-width="1.3"/>
<text x="1085" y="286" class="node" text-anchor="middle">Rental sequence</text>
<text x="1085" y="314" class="small" text-anchor="middle">Bundled calls may lower</text>
<text x="1085" y="337" class="small" text-anchor="middle">execution costs.</text>
<rect x="54" y="387" width="282" height="98" rx="6" fill="#ffffff" stroke="#c9d6e3" stroke-width="1.3"/>
<text x="195" y="419" class="node" text-anchor="middle">JustLend</text>
<text x="195" y="447" class="small" text-anchor="middle">Repay undercollateralized loans</text>
<text x="195" y="470" class="small" text-anchor="middle">and receive seized collateral.</text>
<rect x="928" y="387" width="314" height="98" rx="6" fill="#ffffff" stroke="#d8cfe5" stroke-width="1.3"/>
<text x="1085" y="419" class="node" text-anchor="middle">Collateral recycling</text>
<text x="1085" y="447" class="small" text-anchor="middle">Redeem + swap may release</text>
<text x="1085" y="470" class="small" text-anchor="middle">capital sooner.</text>
<rect x="54" y="520" width="282" height="98" rx="6" fill="#ffffff" stroke="#c9d6e3" stroke-width="1.3"/>
<text x="195" y="552" class="node" text-anchor="middle">USDD</text>
<text x="195" y="580" class="small" text-anchor="middle">Trigger liquidation, restart auctions,</text>
<text x="195" y="603" class="small" text-anchor="middle">or purchase auction collateral.</text>
<rect x="928" y="520" width="314" height="98" rx="6" fill="#ffffff" stroke="#d8cfe5" stroke-width="1.3"/>
<text x="1085" y="552" class="node" text-anchor="middle">Auction timing</text>
<text x="1085" y="580" class="small" text-anchor="middle">Temporary discounts may justify</text>
<text x="1085" y="603" class="small" text-anchor="middle">a closer look at execution costs.</text>
<rect x="480" y="256" width="290" height="42" rx="6" fill="#ffffff" stroke="#c9d6e3" stroke-width="1.3"/>
<text x="625" y="283" class="body" text-anchor="middle" style="fill:#344b60">A · Rental liquidations</text>
<rect x="480" y="308" width="290" height="42" rx="6" fill="#ffffff" stroke="#c9d6e3" stroke-width="1.3"/>
<text x="625" y="335" class="body" text-anchor="middle" style="fill:#344b60">B · Resource bundling</text>
<rect x="480" y="389" width="290" height="42" rx="6" fill="#ffffff" stroke="#c9d6e3" stroke-width="1.3"/>
<text x="625" y="416" class="body" text-anchor="middle" style="fill:#344b60">C · Lending liquidations</text>
<rect x="480" y="441" width="290" height="42" rx="6" fill="#ffffff" stroke="#c9d6e3" stroke-width="1.3"/>
<text x="625" y="468" class="body" text-anchor="middle" style="fill:#344b60">D · Collateral redemption</text>
<rect x="480" y="522" width="290" height="42" rx="6" fill="#ffffff" stroke="#c9d6e3" stroke-width="1.3"/>
<text x="625" y="549" class="body" text-anchor="middle" style="fill:#344b60">E · Keeper actions</text>
<rect x="480" y="574" width="290" height="42" rx="6" fill="#ffffff" stroke="#c9d6e3" stroke-width="1.3"/>
<text x="625" y="601" class="body" text-anchor="middle" style="fill:#344b60">F · Auction purchases</text>
<rect x="1410" y="254" width="310" height="136" rx="6" fill="#ffffff" stroke="#c9d6e3" stroke-width="1.3"/>
<text x="1565" y="283" class="node" text-anchor="middle">Check the mechanism</text>
<text x="1565" y="313" class="body" text-anchor="middle">Execution evidence</text>
<text x="1565" y="340" class="body" text-anchor="middle">Rewards minus costs</text>
<text x="1565" y="367" class="body" text-anchor="middle">Current protocol conditions</text>
<path data-kind="validation-report" d="M 1565 394 C 1565 406.0 1565 406.0 1565 418" stroke="#a8661e" stroke-width="3" fill="none" stroke-linecap="round" marker-end="url(#a2)"/>
<text x="1565" y="450" class="node" text-anchor="middle">Alpha Report</text>
<text x="1565" y="478" class="small" text-anchor="middle">Actionable · Monitor</text>
<text x="1565" y="503" class="small" text-anchor="middle">Rejected · Insufficient Evidence</text>
<path data-kind="report-new-alpha" d="M 1565 509 C 1565 520.5 1565 520.5 1565 532" stroke="#20775b" stroke-width="3" fill="none" stroke-linecap="round" marker-end="url(#a3)"/>
<rect x="1410" y="535" width="310" height="73" rx="6" fill="#eef8f4" stroke="#c9e5d9" stroke-width="1.3"/>
<text x="1565" y="565" class="node" text-anchor="middle" style="fill:#20775b">New Alpha</text>
<text x="1565" y="590" class="small" text-anchor="middle">Only if validation supports it</text>
<text x="900" y="692" class="small" text-anchor="middle">Each candidate receives a report, including when evidence is incomplete.</text>
<rect x="40" y="724" width="520" height="150" rx="8" fill="#eff5ff" stroke="#c8daf8" stroke-width="1.3"/>
<text x="300" y="757" class="heading" text-anchor="middle" style="fill:#2563b8">Skill 1 · Find wallets</text>
<text x="300" y="792" class="body" text-anchor="middle">We identify wallets that executed seed mechanisms</text>
<text x="300" y="819" class="body" text-anchor="middle">and verify their roles using transaction receipts.</text>
<text x="300" y="851" class="small" text-anchor="middle" style="fill:#2563b8">alpha-seed-wallets</text>
<rect x="640" y="724" width="520" height="150" rx="8" fill="#f5f1fc" stroke="#ded2f2" stroke-width="1.3"/>
<text x="900" y="757" class="heading" text-anchor="middle" style="fill:#7953ad">Skill 2 · Investigate wallets</text>
<text x="900" y="792" class="body" text-anchor="middle">We trace each wallet’s history to uncover repeated</text>
<text x="900" y="819" class="body" text-anchor="middle">actions and propose new mechanisms.</text>
<text x="900" y="851" class="small" text-anchor="middle" style="fill:#7953ad">wallet-alpha-investigation</text>
<rect x="1240" y="724" width="520" height="150" rx="8" fill="#fff7ed" stroke="#f1dcc2" stroke-width="1.3"/>
<text x="1500" y="757" class="heading" text-anchor="middle" style="fill:#a8661e">Skill 3 · Validate candidates</text>
<text x="1500" y="792" class="body" text-anchor="middle">We test each candidate against transaction evidence,</text>
<text x="1500" y="819" class="body" text-anchor="middle">execution costs, and current protocol conditions.</text>
<text x="1500" y="851" class="small" text-anchor="middle" style="fill:#a8661e">protocol-alpha-validation</text>
<path data-kind="coordination-bus" d="M 900 947 V 907 M 300 907 H 1500" fill="none" stroke="#20775b" stroke-width="1.8" stroke-dasharray="6 6"/>
<path data-kind="skill-coordination" d="M 300 907 C 300 892.0 300 892.0 300 877" stroke="#20775b" stroke-width="2" fill="none" stroke-linecap="round" marker-end="url(#a3)" stroke-dasharray="5 6"/>
<path data-kind="skill-coordination" d="M 900 907 C 900 892.0 900 892.0 900 877" stroke="#20775b" stroke-width="2" fill="none" stroke-linecap="round" marker-end="url(#a3)" stroke-dasharray="5 6"/>
<path data-kind="skill-coordination" d="M 1500 907 C 1500 892.0 1500 892.0 1500 877" stroke="#20775b" stroke-width="2" fill="none" stroke-linecap="round" marker-end="url(#a3)" stroke-dasharray="5 6"/>
<rect x="1060" y="891" width="280" height="29" rx="0" fill="#ffffff" stroke="none" stroke-width="1.3"/>
<text x="1200" y="911" class="small" text-anchor="middle" style="fill:#20775b">Coordinates Skills 1–3</text>
<rect x="580" y="947" width="640" height="122" rx="8" fill="#eef8f4" stroke="#c9e5d9" stroke-width="1.3"/>
<text x="900" y="977" class="heading" text-anchor="middle" style="fill:#20775b">Skill 4 · Direct the research</text>
<text x="900" y="1007" class="body" text-anchor="middle">We coordinate the three research steps, preserve evidence,</text>
<text x="900" y="1032" class="body" text-anchor="middle">and select what to investigate next.</text>
<text x="900" y="1055" class="small" text-anchor="middle" style="fill:#20775b">protocol-alpha-discovery</text>
<text x="32" y="1120" class="small" text-anchor="start">Method illustration · Two wallets per seed · USDD wallets and auction hypothesis are illustrative, not recorded findings.</text>
</svg>
