<svg xmlns="http://www.w3.org/2000/svg" width="2200" height="1020" viewBox="0 0 2200 1020" role="img" aria-labelledby="title desc" xml:lang="en">
<title id="title">Protocol Alpha Finder · System Architecture</title><desc id="desc">Illustrative addresses, transactions, and report contents. Skill 2 fetches the selected wallet&#x27;s transaction history; three dashed evidence groups support three candidate hypotheses. Skill 4 validates each candidate to produce its own Alpha Report. Protocol Alpha Finder coordinates four operations. Collection and review are initiated manually, with historical coverage recorded explicitly.</desc><defs>
<marker id="a0" viewBox="0 0 10 10" refX="9" refY="5" markerWidth="10" markerHeight="10" markerUnits="userSpaceOnUse" orient="auto"><path d="M 0 0 L 10 5 L 0 10 L 2.5 5 Z" fill="#2563b8"/></marker>
<marker id="a1" viewBox="0 0 10 10" refX="9" refY="5" markerWidth="10" markerHeight="10" markerUnits="userSpaceOnUse" orient="auto"><path d="M 0 0 L 10 5 L 0 10 L 2.5 5 Z" fill="#7953ad"/></marker>
<marker id="a2" viewBox="0 0 10 10" refX="9" refY="5" markerWidth="10" markerHeight="10" markerUnits="userSpaceOnUse" orient="auto"><path d="M 0 0 L 10 5 L 0 10 L 2.5 5 Z" fill="#a8661e"/></marker>
<marker id="a3" viewBox="0 0 10 10" refX="9" refY="5" markerWidth="10" markerHeight="10" markerUnits="userSpaceOnUse" orient="auto"><path d="M 0 0 L 10 5 L 0 10 L 2.5 5 Z" fill="#20775b"/></marker>
</defs><style>
text { font-family: Arial, 'PingFang SC', 'Microsoft YaHei', sans-serif; fill:#24384d; }
.title { font-size:38px; font-weight:700; letter-spacing:-.4px; }
.heading { font-size:23px; font-weight:650; }
.node { font-size:21px; font-weight:600; }
.body { font-size:18px; fill:#526579; }
.small { font-size:16px; fill:#61758a; }
.code { font-family:'SFMono-Regular',Consolas,monospace; font-size:16px; }
.label { font-size:14px; font-weight:650; letter-spacing:1px; fill:#61758a; }
</style>
<rect x="0" y="0" width="2200" height="1020" rx="0" fill="#ffffff" stroke="none" stroke-width="1.3"/>
<style>
.workflow-title { font-size:30px; font-weight:700; }
.skill-title { font-size:24px; font-weight:700; }
.skill-phrase { font-size:18px; font-weight:700; }
.coordinator-title { font-size:32px; font-weight:700; }
.coordinator-description { font-size:23px; font-weight:700; }
.transaction-id { font-family:'SFMono-Regular',Consolas,monospace; font-size:16px; fill:#526579; }
.transaction-action { font-size:14px; fill:#526579; }
.transaction-ellipsis { font-size:27px; fill:#7b8da1; }
.group-label { font-size:19px; font-weight:700; }
.report-title { font-size:19px; font-weight:700; }
.report-field { font-size:15px; fill:#526579; }
.report-value { font-size:15px; font-weight:600; }
</style>
<text x="30" y="55" class="title" text-anchor="start">Protocol Alpha Finder · System Architecture</text>
<path data-kind="legend-evidence" d="M 1680 86 C 1705.0 86 1705.0 86 1730 86" stroke="#2563b8" stroke-width="3" fill="none" stroke-linecap="round" marker-end="url(#a0)"/>
<text x="1744" y="92" class="small" text-anchor="start">Evidence flow</text>
<path data-kind="legend-control" d="M 1920 86 C 1945.0 86 1945.0 86 1970 86" stroke="#2563b8" stroke-width="2" fill="none" stroke-linecap="round" marker-end="url(#a0)" stroke-dasharray="5 6"/>
<text x="1984" y="92" class="small" text-anchor="start">Skill coordination</text>
<rect x="30" y="120" width="2140" height="866" rx="8" fill="#f9fbfe" stroke="#b8cbe2" stroke-width="1.3"/>
<text x="55" y="162" class="workflow-title" text-anchor="start">Research Workflow</text>
<rect x="780" y="177" width="640" height="86" rx="8" fill="#eaf2ff" stroke="#83a8d8" stroke-width="1.3"/>
<text x="1100" y="214" class="coordinator-title" text-anchor="middle" style="fill:#214f96">Protocol Alpha Finder</text>
<text x="1100" y="245" class="coordinator-description" text-anchor="middle" style="fill:#214f96">Coordinate 4 Skills</text>
<path data-kind="coordination-bus" d="M 1100 263 V 285 M 420 285 H 1735" stroke="#2563b8" stroke-width="1.8" stroke-dasharray="6 6" fill="none"/>
<path data-kind="skill-coordination" d="M 420 285 C 420 336.0 420 336.0 420 387.0" stroke="#2563b8" stroke-width="2" fill="none" stroke-linecap="round" marker-end="url(#a0)" stroke-dasharray="5 6"/>
<path data-kind="skill-coordination" d="M 825 285 C 825 336.0 825 336.0 825 387.0" stroke="#2563b8" stroke-width="2" fill="none" stroke-linecap="round" marker-end="url(#a0)" stroke-dasharray="5 6"/>
<path data-kind="skill-coordination" d="M 1305 285 C 1305 336.0 1305 336.0 1305 387.0" stroke="#2563b8" stroke-width="2" fill="none" stroke-linecap="round" marker-end="url(#a0)" stroke-dasharray="5 6"/>
<path data-kind="skill-coordination" d="M 1735 285 C 1735 336.0 1735 336.0 1735 387.0" stroke="#2563b8" stroke-width="2" fill="none" stroke-linecap="round" marker-end="url(#a0)" stroke-dasharray="5 6"/>
<rect x="60" y="305" width="300" height="650" rx="8" fill="#ffffff" stroke="#c9d6e3" stroke-width="1.3"/>
<text x="210.0" y="342" class="heading" text-anchor="middle">1 · Alpha Seeds</text>
<rect x="480" y="305" width="280" height="650" rx="8" fill="#ffffff" stroke="#c9d6e3" stroke-width="1.3"/>
<text x="620.0" y="342" class="heading" text-anchor="middle">2 · Strategy Wallets</text>
<rect x="890" y="305" width="350" height="650" rx="8" fill="#ffffff" stroke="#c9d6e3" stroke-width="1.3"/>
<text x="1065.0" y="342" class="heading" text-anchor="middle">3 · History Transactions</text>
<rect x="1370" y="305" width="300" height="650" rx="8" fill="#ffffff" stroke="#c9d6e3" stroke-width="1.3"/>
<text x="1520.0" y="342" class="heading" text-anchor="middle">4 · Alpha Candidates</text>
<rect x="1800" y="305" width="340" height="650" rx="8" fill="#ffffff" stroke="#c9d6e3" stroke-width="1.3"/>
<text x="1970.0" y="342" class="heading" text-anchor="middle">5 · Alpha Reports</text>
<path data-kind="seed-wallet" d="M 340 470 C 419.0 470 419.0 450 498 450" stroke="#2563b8" stroke-width="3" fill="none" stroke-linecap="round" marker-end="url(#a0)"/>
<path data-kind="seed-wallet" d="M 340 470 C 419.0 470 419.0 498 498 498" stroke="#2563b8" stroke-width="3" fill="none" stroke-linecap="round" marker-end="url(#a0)"/>
<path data-kind="seed-wallet" d="M 340 660 C 419.0 660 419.0 640 498 640" stroke="#2563b8" stroke-width="3" fill="none" stroke-linecap="round" marker-end="url(#a0)"/>
<path data-kind="seed-wallet" d="M 340 660 C 419.0 660 419.0 688 498 688" stroke="#2563b8" stroke-width="3" fill="none" stroke-linecap="round" marker-end="url(#a0)"/>
<path data-kind="seed-wallet" d="M 340 850 C 419.0 850 419.0 830 498 830" stroke="#2563b8" stroke-width="3" fill="none" stroke-linecap="round" marker-end="url(#a0)"/>
<path data-kind="seed-wallet" d="M 340 850 C 419.0 850 419.0 878 498 878" stroke="#2563b8" stroke-width="3" fill="none" stroke-linecap="round" marker-end="url(#a0)"/>
<path data-kind="wallet-history" d="M 740 450 H 767" stroke="#2563b8" stroke-width="3" fill="none" stroke-linecap="round" marker-end="url(#a0)"/>
<path data-kind="monitor-feed" d="M 881 450 H 914 M 914 418 V 904" stroke="#2563b8" stroke-width="2" fill="none" stroke-linecap="round"/>
<path data-kind="monitored-transaction" d="M 914 418 C 928.0 418 928.0 418 942 418" stroke="#2563b8" stroke-width="3" fill="none" stroke-linecap="round" marker-end="url(#a0)"/>
<path data-kind="monitored-transaction" d="M 914 456 C 928.0 456 928.0 456 942 456" stroke="#2563b8" stroke-width="3" fill="none" stroke-linecap="round" marker-end="url(#a0)"/>
<path data-kind="monitored-transaction" d="M 914 524 C 928.0 524 928.0 524 942 524" stroke="#2563b8" stroke-width="3" fill="none" stroke-linecap="round" marker-end="url(#a0)"/>
<path data-kind="monitored-transaction" d="M 914 608 C 928.0 608 928.0 608 942 608" stroke="#2563b8" stroke-width="3" fill="none" stroke-linecap="round" marker-end="url(#a0)"/>
<path data-kind="monitored-transaction" d="M 914 646 C 928.0 646 928.0 646 942 646" stroke="#2563b8" stroke-width="3" fill="none" stroke-linecap="round" marker-end="url(#a0)"/>
<path data-kind="monitored-transaction" d="M 914 714 C 928.0 714 928.0 714 942 714" stroke="#2563b8" stroke-width="3" fill="none" stroke-linecap="round" marker-end="url(#a0)"/>
<path data-kind="monitored-transaction" d="M 914 798 C 928.0 798 928.0 798 942 798" stroke="#2563b8" stroke-width="3" fill="none" stroke-linecap="round" marker-end="url(#a0)"/>
<path data-kind="monitored-transaction" d="M 914 836 C 928.0 836 928.0 836 942 836" stroke="#2563b8" stroke-width="3" fill="none" stroke-linecap="round" marker-end="url(#a0)"/>
<path data-kind="monitored-transaction" d="M 914 904 C 928.0 904 928.0 904 942 904" stroke="#2563b8" stroke-width="3" fill="none" stroke-linecap="round" marker-end="url(#a0)"/>
<path data-kind="history-candidate" d="M 1228 470 C 1308.0 470 1308.0 470 1388 470" stroke="#2563b8" stroke-width="3" fill="none" stroke-linecap="round" marker-end="url(#a0)"/>
<path data-kind="history-candidate" d="M 1228 660 C 1308.0 660 1308.0 660 1388 660" stroke="#7953ad" stroke-width="3" fill="none" stroke-linecap="round" marker-end="url(#a1)"/>
<path data-kind="history-candidate" d="M 1228 850 C 1308.0 850 1308.0 850 1388 850" stroke="#a8661e" stroke-width="3" fill="none" stroke-linecap="round" marker-end="url(#a2)"/>
<path data-kind="candidate-report" d="M 1650 470 C 1734.0 470 1734.0 470 1818 470" stroke="#2563b8" stroke-width="3" fill="none" stroke-linecap="round" marker-end="url(#a0)"/>
<path data-kind="candidate-report" d="M 1650 660 C 1734.0 660 1734.0 660 1818 660" stroke="#7953ad" stroke-width="3" fill="none" stroke-linecap="round" marker-end="url(#a1)"/>
<path data-kind="candidate-report" d="M 1650 850 C 1734.0 850 1734.0 850 1818 850" stroke="#a8661e" stroke-width="3" fill="none" stroke-linecap="round" marker-end="url(#a2)"/>
<rect x="80" y="421" width="260" height="98" rx="6" fill="#ffffff" stroke="#c9d6e3" stroke-width="1.3"/>
<text x="210" y="453" class="node" text-anchor="middle">Energy Rental</text>
<text x="210" y="481" class="small" text-anchor="middle">Clear depleted orders and</text>
<text x="210" y="504" class="small" text-anchor="middle">recover resources and rewards.</text>
<rect data-kind="transaction-group" x="934" y="390" width="294" height="156" rx="8" fill="none" stroke="#2563b8" stroke-width="2" stroke-dasharray="7 5"/>
<text x="944" y="380" class="group-label" text-anchor="start" style="fill:#2563b8">Rental executions</text>
<g data-kind="transaction-row">
<rect x="944" y="403" width="274" height="30" rx="5" fill="#f8fafc" stroke="#d3dce6" stroke-width="1.3"/>
<text x="956" y="423" class="transaction-id" text-anchor="start">0xa91f…42c8</text>
<text x="1206" y="423" class="transaction-action" text-anchor="end">liquidate</text>
</g>
<g data-kind="transaction-row">
<rect x="944" y="441" width="274" height="30" rx="5" fill="#f8fafc" stroke="#d3dce6" stroke-width="1.3"/>
<text x="956" y="461" class="transaction-id" text-anchor="start">0xb20e…73a1</text>
<text x="1206" y="461" class="transaction-action" text-anchor="end">settle</text>
</g>
<g data-kind="transaction-row">
<rect x="944" y="509" width="274" height="30" rx="5" fill="#f8fafc" stroke="#d3dce6" stroke-width="1.3"/>
<text x="956" y="529" class="transaction-id" text-anchor="start">0x18dc…6f02</text>
<text x="1206" y="529" class="transaction-action" text-anchor="end">claim</text>
</g>
<text x="1081" y="499" class="transaction-ellipsis" text-anchor="middle">⋮</text>
<rect x="1390" y="421" width="260" height="98" rx="6" fill="#eff5ff" stroke="#c8daf8" stroke-width="1.3"/>
<text x="1520" y="453" class="node" text-anchor="middle" style="fill:#2563b8">Rental sequence</text>
<text x="1520" y="481" class="small" text-anchor="middle">Bundled calls may lower</text>
<text x="1520" y="504" class="small" text-anchor="middle">execution costs.</text>
<g data-kind="alpha-report">
<rect x="1820" y="382" width="300" height="176" rx="6" fill="#eff5ff" stroke="#c8daf8" stroke-width="1.3"/>
<text x="1970" y="407" class="report-title" text-anchor="middle" style="fill:#2563b8">Alpha Report 1</text>
<path d="M 1836 419 L 2104 419" stroke="#c8daf8" fill="none"/>
<text x="1836" y="438" class="report-field" text-anchor="start">Open opportunities</text>
<text x="2104" y="438" class="report-value" text-anchor="end">2</text>
<path d="M 1836 445 L 2104 445" stroke="#c8daf8" fill="none"/>
<text x="1836" y="459" class="report-field" text-anchor="start">Size / event</text>
<text x="2104" y="459" class="report-value" text-anchor="end">2,500 USDT</text>
<path d="M 1836 466 L 2104 466" stroke="#c8daf8" fill="none"/>
<text x="1836" y="480" class="report-field" text-anchor="start">Capacity / event</text>
<text x="2104" y="480" class="report-value" text-anchor="end">10,000 USDT</text>
<path d="M 1836 487 L 2104 487" stroke="#c8daf8" fill="none"/>
<text x="1836" y="501" class="report-field" text-anchor="start">History (30d)</text>
<text x="2104" y="501" class="report-value" text-anchor="end">120 events</text>
<path d="M 1836 508 L 2104 508" stroke="#c8daf8" fill="none"/>
<text x="1836" y="522" class="report-field" text-anchor="start">Observed rate</text>
<text x="2104" y="522" class="report-value" text-anchor="end">4 / day</text>
<path d="M 1836 529 L 2104 529" stroke="#c8daf8" fill="none"/>
<text x="1836" y="543" class="report-field" text-anchor="start">Forecast (7d)</text>
<text x="2104" y="543" class="report-value" text-anchor="end">3–5 / day</text>
</g>
<rect x="80" y="611" width="260" height="98" rx="6" fill="#ffffff" stroke="#c9d6e3" stroke-width="1.3"/>
<text x="210" y="643" class="node" text-anchor="middle">JustLend</text>
<text x="210" y="671" class="small" text-anchor="middle">Repay undercollateralized loans</text>
<text x="210" y="694" class="small" text-anchor="middle">and receive seized collateral.</text>
<rect data-kind="transaction-group" x="934" y="580" width="294" height="156" rx="8" fill="none" stroke="#7953ad" stroke-width="2" stroke-dasharray="7 5"/>
<text x="944" y="570" class="group-label" text-anchor="start" style="fill:#7953ad">Collateral flows</text>
<g data-kind="transaction-row">
<rect x="944" y="593" width="274" height="30" rx="5" fill="#f8fafc" stroke="#d3dce6" stroke-width="1.3"/>
<text x="956" y="613" class="transaction-id" text-anchor="start">0xc73d…81b6</text>
<text x="1206" y="613" class="transaction-action" text-anchor="end">redeem</text>
</g>
<g data-kind="transaction-row">
<rect x="944" y="631" width="274" height="30" rx="5" fill="#f8fafc" stroke="#d3dce6" stroke-width="1.3"/>
<text x="956" y="651" class="transaction-id" text-anchor="start">0xd48a…59e2</text>
<text x="1206" y="651" class="transaction-action" text-anchor="end">swap</text>
</g>
<g data-kind="transaction-row">
<rect x="944" y="699" width="274" height="30" rx="5" fill="#f8fafc" stroke="#d3dce6" stroke-width="1.3"/>
<text x="956" y="719" class="transaction-id" text-anchor="start">0x92fb…0ac4</text>
<text x="1206" y="719" class="transaction-action" text-anchor="end">repay</text>
</g>
<text x="1081" y="689" class="transaction-ellipsis" text-anchor="middle">⋮</text>
<rect x="1390" y="611" width="260" height="98" rx="6" fill="#f5f1fc" stroke="#ded2f2" stroke-width="1.3"/>
<text x="1520" y="643" class="node" text-anchor="middle" style="fill:#7953ad">Collateral recycling</text>
<text x="1520" y="671" class="small" text-anchor="middle">Redeem and swap may release</text>
<text x="1520" y="694" class="small" text-anchor="middle">capital sooner.</text>
<g data-kind="alpha-report">
<rect x="1820" y="572" width="300" height="176" rx="6" fill="#f5f1fc" stroke="#ded2f2" stroke-width="1.3"/>
<text x="1970" y="597" class="report-title" text-anchor="middle" style="fill:#7953ad">Alpha Report 2</text>
<path d="M 1836 609 L 2104 609" stroke="#ded2f2" fill="none"/>
<text x="1836" y="628" class="report-field" text-anchor="start">Open opportunities</text>
<text x="2104" y="628" class="report-value" text-anchor="end">1</text>
<path d="M 1836 635 L 2104 635" stroke="#ded2f2" fill="none"/>
<text x="1836" y="649" class="report-field" text-anchor="start">Size / event</text>
<text x="2104" y="649" class="report-value" text-anchor="end">8,000 USDT</text>
<path d="M 1836 656 L 2104 656" stroke="#ded2f2" fill="none"/>
<text x="1836" y="670" class="report-field" text-anchor="start">Capacity / event</text>
<text x="2104" y="670" class="report-value" text-anchor="end">40,000 USDT</text>
<path d="M 1836 677 L 2104 677" stroke="#ded2f2" fill="none"/>
<text x="1836" y="691" class="report-field" text-anchor="start">History (30d)</text>
<text x="2104" y="691" class="report-value" text-anchor="end">30 events</text>
<path d="M 1836 698 L 2104 698" stroke="#ded2f2" fill="none"/>
<text x="1836" y="712" class="report-field" text-anchor="start">Observed rate</text>
<text x="2104" y="712" class="report-value" text-anchor="end">1 / day</text>
<path d="M 1836 719 L 2104 719" stroke="#ded2f2" fill="none"/>
<text x="1836" y="733" class="report-field" text-anchor="start">Forecast (7d)</text>
<text x="2104" y="733" class="report-value" text-anchor="end">1–2 / day</text>
</g>
<rect x="80" y="801" width="260" height="98" rx="6" fill="#ffffff" stroke="#c9d6e3" stroke-width="1.3"/>
<text x="210" y="833" class="node" text-anchor="middle">USDD</text>
<text x="210" y="861" class="small" text-anchor="middle">Trigger liquidation, reset auctions,</text>
<text x="210" y="884" class="small" text-anchor="middle">or buy auction collateral.</text>
<rect data-kind="transaction-group" x="934" y="770" width="294" height="156" rx="8" fill="none" stroke="#a8661e" stroke-width="2" stroke-dasharray="7 5"/>
<text x="944" y="760" class="group-label" text-anchor="start" style="fill:#a8661e">Auction executions</text>
<g data-kind="transaction-row">
<rect x="944" y="783" width="274" height="30" rx="5" fill="#f8fafc" stroke="#d3dce6" stroke-width="1.3"/>
<text x="956" y="803" class="transaction-id" text-anchor="start">0xe52b…37d9</text>
<text x="1206" y="803" class="transaction-action" text-anchor="end">reset</text>
</g>
<g data-kind="transaction-row">
<rect x="944" y="821" width="274" height="30" rx="5" fill="#f8fafc" stroke="#d3dce6" stroke-width="1.3"/>
<text x="956" y="841" class="transaction-id" text-anchor="start">0xf90c…12a7</text>
<text x="1206" y="841" class="transaction-action" text-anchor="end">buy</text>
</g>
<g data-kind="transaction-row">
<rect x="944" y="889" width="274" height="30" rx="5" fill="#f8fafc" stroke="#d3dce6" stroke-width="1.3"/>
<text x="956" y="909" class="transaction-id" text-anchor="start">0x64ab…95e3</text>
<text x="1206" y="909" class="transaction-action" text-anchor="end">settle</text>
</g>
<text x="1081" y="879" class="transaction-ellipsis" text-anchor="middle">⋮</text>
<rect x="1390" y="801" width="260" height="98" rx="6" fill="#fff7ed" stroke="#f1dcc2" stroke-width="1.3"/>
<text x="1520" y="833" class="node" text-anchor="middle" style="fill:#a8661e">Auction timing</text>
<text x="1520" y="861" class="small" text-anchor="middle">Temporary discounts may offer</text>
<text x="1520" y="884" class="small" text-anchor="middle">an opportunity after costs.</text>
<g data-kind="alpha-report">
<rect x="1820" y="762" width="300" height="176" rx="6" fill="#fff7ed" stroke="#f1dcc2" stroke-width="1.3"/>
<text x="1970" y="787" class="report-title" text-anchor="middle" style="fill:#a8661e">Alpha Report 3</text>
<path d="M 1836 799 L 2104 799" stroke="#f1dcc2" fill="none"/>
<text x="1836" y="818" class="report-field" text-anchor="start">Open opportunities</text>
<text x="2104" y="818" class="report-value" text-anchor="end">0</text>
<path d="M 1836 825 L 2104 825" stroke="#f1dcc2" fill="none"/>
<text x="1836" y="839" class="report-field" text-anchor="start">Size / event</text>
<text x="2104" y="839" class="report-value" text-anchor="end">15,000 USDT</text>
<path d="M 1836 846 L 2104 846" stroke="#f1dcc2" fill="none"/>
<text x="1836" y="860" class="report-field" text-anchor="start">Capacity / event</text>
<text x="2104" y="860" class="report-value" text-anchor="end">75,000 USDT</text>
<path d="M 1836 867 L 2104 867" stroke="#f1dcc2" fill="none"/>
<text x="1836" y="881" class="report-field" text-anchor="start">History (30d)</text>
<text x="2104" y="881" class="report-value" text-anchor="end">6 events</text>
<path d="M 1836 888 L 2104 888" stroke="#f1dcc2" fill="none"/>
<text x="1836" y="902" class="report-field" text-anchor="start">Observed rate</text>
<text x="2104" y="902" class="report-value" text-anchor="end">0.2 / day</text>
<path d="M 1836 909 L 2104 909" stroke="#f1dcc2" fill="none"/>
<text x="1836" y="923" class="report-field" text-anchor="start">Forecast (7d)</text>
<text x="2104" y="923" class="report-value" text-anchor="end">0–1 / day</text>
</g>
<rect x="500" y="429" width="240" height="42" rx="6" fill="#20775b" stroke="#20775b" stroke-width="1.3"/>
<text x="620" y="457" class="node" text-anchor="middle" style="fill:#ffffff">T8mQ…4kN2</text>
<rect x="500" y="477" width="240" height="42" rx="6" fill="#f8fafc" stroke="#d3dce6" stroke-width="1.3"/>
<text x="620" y="505" class="node" text-anchor="middle" style="fill:#61758a">TB7p…9wR4</text>
<rect x="500" y="619" width="240" height="42" rx="6" fill="#f8fafc" stroke="#d3dce6" stroke-width="1.3"/>
<text x="620" y="647" class="node" text-anchor="middle" style="fill:#61758a">TK3v…7dA6</text>
<rect x="500" y="667" width="240" height="42" rx="6" fill="#f8fafc" stroke="#d3dce6" stroke-width="1.3"/>
<text x="620" y="695" class="node" text-anchor="middle" style="fill:#61758a">TP5n…2sF8</text>
<rect x="500" y="809" width="240" height="42" rx="6" fill="#f8fafc" stroke="#d3dce6" stroke-width="1.3"/>
<text x="620" y="837" class="node" text-anchor="middle" style="fill:#61758a">TU6c…8hM3</text>
<rect x="500" y="857" width="240" height="42" rx="6" fill="#f8fafc" stroke="#d3dce6" stroke-width="1.3"/>
<text x="620" y="885" class="node" text-anchor="middle" style="fill:#61758a">TX9r…5bK7</text>
<g data-kind="skill-badge">
<rect x="364" y="390.0" width="112" height="540" rx="7" fill="#eaf2ff" stroke="#83a8d8" stroke-width="1.3"/>
<text x="420" y="631.0" class="skill-title" text-anchor="middle" style="fill:#214f96">Skill 1</text>
<text x="420" y="661.0" class="skill-phrase" text-anchor="middle" style="fill:#214f96">Find</text>
<text x="420" y="684.0" class="skill-phrase" text-anchor="middle" style="fill:#214f96">Strategy</text>
<text x="420" y="707.0" class="skill-phrase" text-anchor="middle" style="fill:#214f96">Wallets</text>
</g>
<g data-kind="skill-badge">
<rect x="769" y="390.0" width="112" height="540" rx="7" fill="#eaf2ff" stroke="#83a8d8" stroke-width="1.3"/>
<text x="825" y="631.0" class="skill-title" text-anchor="middle" style="fill:#214f96">Skill 2</text>
<text x="825" y="661.0" class="skill-phrase" text-anchor="middle" style="fill:#214f96">Fetch</text>
<text x="825" y="684.0" class="skill-phrase" text-anchor="middle" style="fill:#214f96">Wallet</text>
<text x="825" y="707.0" class="skill-phrase" text-anchor="middle" style="fill:#214f96">History</text>
</g>
<g data-kind="skill-badge">
<rect x="1249" y="390.0" width="112" height="540" rx="7" fill="#eaf2ff" stroke="#83a8d8" stroke-width="1.3"/>
<text x="1305" y="631.0" class="skill-title" text-anchor="middle" style="fill:#214f96">Skill 3</text>
<text x="1305" y="661.0" class="skill-phrase" text-anchor="middle" style="fill:#214f96">Extract</text>
<text x="1305" y="684.0" class="skill-phrase" text-anchor="middle" style="fill:#214f96">Alpha</text>
<text x="1305" y="707.0" class="skill-phrase" text-anchor="middle" style="fill:#214f96">Candidates</text>
</g>
<g data-kind="skill-badge">
<rect x="1679" y="390.0" width="112" height="540" rx="7" fill="#eaf2ff" stroke="#83a8d8" stroke-width="1.3"/>
<text x="1735" y="631.0" class="skill-title" text-anchor="middle" style="fill:#214f96">Skill 4</text>
<text x="1735" y="661.0" class="skill-phrase" text-anchor="middle" style="fill:#214f96">Validate</text>
<text x="1735" y="684.0" class="skill-phrase" text-anchor="middle" style="fill:#214f96">Alpha</text>
<text x="1735" y="707.0" class="skill-phrase" text-anchor="middle" style="fill:#214f96">Candidates</text>
</g>
</svg>
